<mxfile host="app.diagrams.net" modified="2024-05-13T14:50:05.193Z" agent="Mozilla/5.0 (Windows NT 10.0; Win64; x64) AppleWebKit/537.36 (KHTML, like Gecko) Chrome/123.0.0.0 Safari/537.36" etag="Xvp9CugwjASZkfkr2Wlk" version="24.2.3" type="device">
  <diagram id="C5RBs43oDa-KdzZeNtuy" name="Page-1">
    <mxGraphModel dx="2927" dy="1177" grid="1" gridSize="10" guides="1" tooltips="1" connect="1" arrows="1" fold="1" page="1" pageScale="1" pageWidth="827" pageHeight="1169" math="0" shadow="0">
      <root>
        <mxCell id="WIyWlLk6GJQsqaUBKTNV-0" />
        <mxCell id="WIyWlLk6GJQsqaUBKTNV-1" parent="WIyWlLk6GJQsqaUBKTNV-0" />
        <mxCell id="jA7vhIhsQU3gE75cj8yv-198" value="&lt;font style=&quot;font-size: 18px;&quot;&gt;&lt;span style=&quot;white-space: pre;&quot;&gt;&#x9;&lt;/span&gt;Database&lt;/font&gt;" style="shape=note;whiteSpace=wrap;html=1;backgroundOutline=1;darkOpacity=0.05;align=left;verticalAlign=top;" vertex="1" parent="WIyWlLk6GJQsqaUBKTNV-1">
          <mxGeometry x="400" y="490" width="260" height="210" as="geometry" />
        </mxCell>
        <mxCell id="jA7vhIhsQU3gE75cj8yv-127" value="&lt;font style=&quot;font-size: 18px;&quot;&gt;&lt;span style=&quot;white-space: pre;&quot;&gt;&#x9;&lt;/span&gt;Controller&lt;/font&gt;" style="shape=note;whiteSpace=wrap;html=1;backgroundOutline=1;darkOpacity=0.05;align=left;verticalAlign=top;" vertex="1" parent="WIyWlLk6GJQsqaUBKTNV-1">
          <mxGeometry x="-620" y="100" width="320" height="310" as="geometry" />
        </mxCell>
        <mxCell id="jA7vhIhsQU3gE75cj8yv-125" value="&lt;font style=&quot;font-size: 18px;&quot;&gt;&lt;span style=&quot;white-space: pre;&quot;&gt;&#x9;&lt;/span&gt;Service&lt;/font&gt;" style="shape=note;whiteSpace=wrap;html=1;backgroundOutline=1;darkOpacity=0.05;align=left;verticalAlign=top;" vertex="1" parent="WIyWlLk6GJQsqaUBKTNV-1">
          <mxGeometry x="-630" y="450" width="1010" height="680" as="geometry" />
        </mxCell>
        <mxCell id="jA7vhIhsQU3gE75cj8yv-124" value="&lt;font style=&quot;font-size: 18px;&quot;&gt;&lt;span style=&quot;white-space: pre;&quot;&gt;&#x9;&lt;/span&gt;Model&lt;/font&gt;" style="shape=note;whiteSpace=wrap;html=1;backgroundOutline=1;darkOpacity=0.05;align=left;verticalAlign=top;" vertex="1" parent="WIyWlLk6GJQsqaUBKTNV-1">
          <mxGeometry x="-290" y="30" width="950" height="380" as="geometry" />
        </mxCell>
        <mxCell id="jA7vhIhsQU3gE75cj8yv-75" value="&lt;font style=&quot;font-size: 14px;&quot;&gt;&amp;nbsp;Interpolation methods&lt;/font&gt;" style="shape=note;whiteSpace=wrap;html=1;backgroundOutline=1;darkOpacity=0.05;align=left;horizontal=1;verticalAlign=top;" vertex="1" parent="WIyWlLk6GJQsqaUBKTNV-1">
          <mxGeometry x="-610" y="990" width="460" height="130" as="geometry" />
        </mxCell>
        <mxCell id="jA7vhIhsQU3gE75cj8yv-71" value="&lt;font style=&quot;font-size: 14px;&quot;&gt;&amp;nbsp;Domain partitioning methods&lt;/font&gt;" style="shape=note;whiteSpace=wrap;html=1;backgroundOutline=1;darkOpacity=0.05;align=left;horizontal=1;verticalAlign=top;" vertex="1" parent="WIyWlLk6GJQsqaUBKTNV-1">
          <mxGeometry x="90" y="870" width="270" height="240" as="geometry" />
        </mxCell>
        <mxCell id="zkfFHV4jXpPFQw0GAbJ--0" value="ComputeManagerService" style="swimlane;fontStyle=2;align=center;verticalAlign=top;childLayout=stackLayout;horizontal=1;startSize=26;horizontalStack=0;resizeParent=1;resizeLast=0;collapsible=1;marginBottom=0;rounded=0;shadow=0;strokeWidth=1;fillColor=#cce5ff;strokeColor=#36393d;" parent="WIyWlLk6GJQsqaUBKTNV-1" vertex="1">
          <mxGeometry x="-490" y="478" width="260" height="502" as="geometry">
            <mxRectangle x="230" y="140" width="160" height="26" as="alternateBounds" />
          </mxGeometry>
        </mxCell>
        <mxCell id="zkfFHV4jXpPFQw0GAbJ--1" value="nodes: Dict[UUID, ComputeNode]" style="text;align=left;verticalAlign=top;spacingLeft=4;spacingRight=4;overflow=hidden;rotatable=0;points=[[0,0.5],[1,0.5]];portConstraint=eastwest;" parent="zkfFHV4jXpPFQw0GAbJ--0" vertex="1">
          <mxGeometry y="26" width="260" height="26" as="geometry" />
        </mxCell>
        <mxCell id="zkfFHV4jXpPFQw0GAbJ--2" value="executor: ThreadPoolExecutor" style="text;align=left;verticalAlign=top;spacingLeft=4;spacingRight=4;overflow=hidden;rotatable=0;points=[[0,0.5],[1,0.5]];portConstraint=eastwest;rounded=0;shadow=0;html=0;" parent="zkfFHV4jXpPFQw0GAbJ--0" vertex="1">
          <mxGeometry y="52" width="260" height="26" as="geometry" />
        </mxCell>
        <mxCell id="zkfFHV4jXpPFQw0GAbJ--3" value="active_nodes: Dict[UUID, ComputeNodeService]&#xa;" style="text;align=left;verticalAlign=top;spacingLeft=4;spacingRight=4;overflow=hidden;rotatable=0;points=[[0,0.5],[1,0.5]];portConstraint=eastwest;rounded=0;shadow=0;html=0;fontSize=11;" parent="zkfFHV4jXpPFQw0GAbJ--0" vertex="1">
          <mxGeometry y="78" width="260" height="26" as="geometry" />
        </mxCell>
        <mxCell id="jA7vhIhsQU3gE75cj8yv-184" value="scheduler: sched.scheduler" style="text;align=left;verticalAlign=top;spacingLeft=4;spacingRight=4;overflow=hidden;rotatable=0;points=[[0,0.5],[1,0.5]];portConstraint=eastwest;rounded=0;shadow=0;html=0;" vertex="1" parent="zkfFHV4jXpPFQw0GAbJ--0">
          <mxGeometry y="104" width="260" height="26" as="geometry" />
        </mxCell>
        <mxCell id="jA7vhIhsQU3gE75cj8yv-185" value="scheduled_tasks: Dict[UUID, sched.Event]" style="text;align=left;verticalAlign=top;spacingLeft=4;spacingRight=4;overflow=hidden;rotatable=0;points=[[0,0.5],[1,0.5]];portConstraint=eastwest;rounded=0;shadow=0;html=0;" vertex="1" parent="zkfFHV4jXpPFQw0GAbJ--0">
          <mxGeometry y="130" width="260" height="26" as="geometry" />
        </mxCell>
        <mxCell id="jA7vhIhsQU3gE75cj8yv-186" value="running: bool" style="text;align=left;verticalAlign=top;spacingLeft=4;spacingRight=4;overflow=hidden;rotatable=0;points=[[0,0.5],[1,0.5]];portConstraint=eastwest;rounded=0;shadow=0;html=0;" vertex="1" parent="zkfFHV4jXpPFQw0GAbJ--0">
          <mxGeometry y="156" width="260" height="26" as="geometry" />
        </mxCell>
        <mxCell id="zkfFHV4jXpPFQw0GAbJ--4" value="" style="line;html=1;strokeWidth=1;align=left;verticalAlign=middle;spacingTop=-1;spacingLeft=3;spacingRight=3;rotatable=0;labelPosition=right;points=[];portConstraint=eastwest;" parent="zkfFHV4jXpPFQw0GAbJ--0" vertex="1">
          <mxGeometry y="182" width="260" height="8" as="geometry" />
        </mxCell>
        <mxCell id="zkfFHV4jXpPFQw0GAbJ--5" value="add_compute_node(ComputeNode): ComputeNode" style="text;align=left;verticalAlign=top;spacingLeft=4;spacingRight=4;overflow=hidden;rotatable=0;points=[[0,0.5],[1,0.5]];portConstraint=eastwest;fontSize=11;" parent="zkfFHV4jXpPFQw0GAbJ--0" vertex="1">
          <mxGeometry y="190" width="260" height="26" as="geometry" />
        </mxCell>
        <mxCell id="jA7vhIhsQU3gE75cj8yv-187" value="task_executor()" style="text;align=left;verticalAlign=top;spacingLeft=4;spacingRight=4;overflow=hidden;rotatable=0;points=[[0,0.5],[1,0.5]];portConstraint=eastwest;" vertex="1" parent="zkfFHV4jXpPFQw0GAbJ--0">
          <mxGeometry y="216" width="260" height="26" as="geometry" />
        </mxCell>
        <mxCell id="jA7vhIhsQU3gE75cj8yv-188" value="activate_compute_node(UUID)" style="text;align=left;verticalAlign=top;spacingLeft=4;spacingRight=4;overflow=hidden;rotatable=0;points=[[0,0.5],[1,0.5]];portConstraint=eastwest;" vertex="1" parent="zkfFHV4jXpPFQw0GAbJ--0">
          <mxGeometry y="242" width="260" height="26" as="geometry" />
        </mxCell>
        <mxCell id="jA7vhIhsQU3gE75cj8yv-189" value="trigger(UUID)" style="text;align=left;verticalAlign=top;spacingLeft=4;spacingRight=4;overflow=hidden;rotatable=0;points=[[0,0.5],[1,0.5]];portConstraint=eastwest;" vertex="1" parent="zkfFHV4jXpPFQw0GAbJ--0">
          <mxGeometry y="268" width="260" height="26" as="geometry" />
        </mxCell>
        <mxCell id="jA7vhIhsQU3gE75cj8yv-190" value="continous_trigger(UUID)" style="text;align=left;verticalAlign=top;spacingLeft=4;spacingRight=4;overflow=hidden;rotatable=0;points=[[0,0.5],[1,0.5]];portConstraint=eastwest;" vertex="1" parent="zkfFHV4jXpPFQw0GAbJ--0">
          <mxGeometry y="294" width="260" height="26" as="geometry" />
        </mxCell>
        <mxCell id="jA7vhIhsQU3gE75cj8yv-191" value="cancel_scheduled_task(UUID)" style="text;align=left;verticalAlign=top;spacingLeft=4;spacingRight=4;overflow=hidden;rotatable=0;points=[[0,0.5],[1,0.5]];portConstraint=eastwest;" vertex="1" parent="zkfFHV4jXpPFQw0GAbJ--0">
          <mxGeometry y="320" width="260" height="26" as="geometry" />
        </mxCell>
        <mxCell id="jA7vhIhsQU3gE75cj8yv-192" value="deactivate_compute_node(UUID)" style="text;align=left;verticalAlign=top;spacingLeft=4;spacingRight=4;overflow=hidden;rotatable=0;points=[[0,0.5],[1,0.5]];portConstraint=eastwest;" vertex="1" parent="zkfFHV4jXpPFQw0GAbJ--0">
          <mxGeometry y="346" width="260" height="26" as="geometry" />
        </mxCell>
        <mxCell id="jA7vhIhsQU3gE75cj8yv-193" value="deactivate_all_compute_nodes()" style="text;align=left;verticalAlign=top;spacingLeft=4;spacingRight=4;overflow=hidden;rotatable=0;points=[[0,0.5],[1,0.5]];portConstraint=eastwest;" vertex="1" parent="zkfFHV4jXpPFQw0GAbJ--0">
          <mxGeometry y="372" width="260" height="26" as="geometry" />
        </mxCell>
        <mxCell id="jA7vhIhsQU3gE75cj8yv-194" value="run_compute_node(UUID): ComputeNode" style="text;align=left;verticalAlign=top;spacingLeft=4;spacingRight=4;overflow=hidden;rotatable=0;points=[[0,0.5],[1,0.5]];portConstraint=eastwest;" vertex="1" parent="zkfFHV4jXpPFQw0GAbJ--0">
          <mxGeometry y="398" width="260" height="26" as="geometry" />
        </mxCell>
        <mxCell id="jA7vhIhsQU3gE75cj8yv-195" value="remove_compute_node(UUID)" style="text;align=left;verticalAlign=top;spacingLeft=4;spacingRight=4;overflow=hidden;rotatable=0;points=[[0,0.5],[1,0.5]];portConstraint=eastwest;" vertex="1" parent="zkfFHV4jXpPFQw0GAbJ--0">
          <mxGeometry y="424" width="260" height="26" as="geometry" />
        </mxCell>
        <mxCell id="jA7vhIhsQU3gE75cj8yv-196" value="get_compute_node(UUID): ComputeNode" style="text;align=left;verticalAlign=top;spacingLeft=4;spacingRight=4;overflow=hidden;rotatable=0;points=[[0,0.5],[1,0.5]];portConstraint=eastwest;" vertex="1" parent="zkfFHV4jXpPFQw0GAbJ--0">
          <mxGeometry y="450" width="260" height="26" as="geometry" />
        </mxCell>
        <mxCell id="jA7vhIhsQU3gE75cj8yv-197" value="get_all_compute_nodes(): Dict[UUID, ComputeNode]" style="text;align=left;verticalAlign=top;spacingLeft=4;spacingRight=4;overflow=hidden;rotatable=0;points=[[0,0.5],[1,0.5]];portConstraint=eastwest;fontSize=10;" vertex="1" parent="zkfFHV4jXpPFQw0GAbJ--0">
          <mxGeometry y="476" width="260" height="26" as="geometry" />
        </mxCell>
        <mxCell id="zkfFHV4jXpPFQw0GAbJ--6" value="ComputeNodeService" style="swimlane;fontStyle=0;align=center;verticalAlign=top;childLayout=stackLayout;horizontal=1;startSize=26;horizontalStack=0;resizeParent=1;resizeLast=0;collapsible=1;marginBottom=0;rounded=0;shadow=0;strokeWidth=1;fillColor=#cce5ff;strokeColor=#36393d;" parent="WIyWlLk6GJQsqaUBKTNV-1" vertex="1">
          <mxGeometry x="-160" y="470" width="220" height="164" as="geometry">
            <mxRectangle x="130" y="380" width="160" height="26" as="alternateBounds" />
          </mxGeometry>
        </mxCell>
        <mxCell id="zkfFHV4jXpPFQw0GAbJ--7" value="config_service: ConfigService" style="text;align=left;verticalAlign=top;spacingLeft=4;spacingRight=4;overflow=hidden;rotatable=0;points=[[0,0.5],[1,0.5]];portConstraint=eastwest;" parent="zkfFHV4jXpPFQw0GAbJ--6" vertex="1">
          <mxGeometry y="26" width="220" height="26" as="geometry" />
        </mxCell>
        <mxCell id="jA7vhIhsQU3gE75cj8yv-199" value="compute_node: ComputeNode" style="text;align=left;verticalAlign=top;spacingLeft=4;spacingRight=4;overflow=hidden;rotatable=0;points=[[0,0.5],[1,0.5]];portConstraint=eastwest;" vertex="1" parent="zkfFHV4jXpPFQw0GAbJ--6">
          <mxGeometry y="52" width="220" height="26" as="geometry" />
        </mxCell>
        <mxCell id="zkfFHV4jXpPFQw0GAbJ--9" value="" style="line;html=1;strokeWidth=1;align=left;verticalAlign=middle;spacingTop=-1;spacingLeft=3;spacingRight=3;rotatable=0;labelPosition=right;points=[];portConstraint=eastwest;" parent="zkfFHV4jXpPFQw0GAbJ--6" vertex="1">
          <mxGeometry y="78" width="220" height="8" as="geometry" />
        </mxCell>
        <mxCell id="jA7vhIhsQU3gE75cj8yv-200" value="compute(ThreadPoolExecutor): Future" style="text;align=left;verticalAlign=top;spacingLeft=4;spacingRight=4;overflow=hidden;rotatable=0;points=[[0,0.5],[1,0.5]];portConstraint=eastwest;" vertex="1" parent="zkfFHV4jXpPFQw0GAbJ--6">
          <mxGeometry y="86" width="220" height="26" as="geometry" />
        </mxCell>
        <mxCell id="jA7vhIhsQU3gE75cj8yv-201" value="next_run_comparable(): float&#xa;" style="text;align=left;verticalAlign=top;spacingLeft=4;spacingRight=4;overflow=hidden;rotatable=0;points=[[0,0.5],[1,0.5]];portConstraint=eastwest;" vertex="1" parent="zkfFHV4jXpPFQw0GAbJ--6">
          <mxGeometry y="112" width="220" height="26" as="geometry" />
        </mxCell>
        <mxCell id="jA7vhIhsQU3gE75cj8yv-203" value="get_next_run(): datetime" style="text;align=left;verticalAlign=top;spacingLeft=4;spacingRight=4;overflow=hidden;rotatable=0;points=[[0,0.5],[1,0.5]];portConstraint=eastwest;" vertex="1" parent="zkfFHV4jXpPFQw0GAbJ--6">
          <mxGeometry y="138" width="220" height="26" as="geometry" />
        </mxCell>
        <mxCell id="jA7vhIhsQU3gE75cj8yv-1" value="ComputePoolController" style="swimlane;fontStyle=2;align=center;verticalAlign=top;childLayout=stackLayout;horizontal=1;startSize=26;horizontalStack=0;resizeParent=1;resizeLast=0;collapsible=1;marginBottom=0;rounded=0;shadow=0;strokeWidth=1;fillColor=#cce5ff;strokeColor=#36393d;" vertex="1" parent="WIyWlLk6GJQsqaUBKTNV-1">
          <mxGeometry x="-610" y="150" width="300" height="234" as="geometry">
            <mxRectangle x="230" y="140" width="160" height="26" as="alternateBounds" />
          </mxGeometry>
        </mxCell>
        <mxCell id="jA7vhIhsQU3gE75cj8yv-238" value="add_node(ComputeNode, ComputeManagerService): json" style="text;align=left;verticalAlign=top;spacingLeft=4;spacingRight=4;overflow=hidden;rotatable=0;points=[[0,0.5],[1,0.5]];portConstraint=eastwest;fontSize=11;" vertex="1" parent="jA7vhIhsQU3gE75cj8yv-1">
          <mxGeometry y="26" width="300" height="26" as="geometry" />
        </mxCell>
        <mxCell id="jA7vhIhsQU3gE75cj8yv-239" value="remove_node(UUID, ComputeManagerService): json" style="text;align=left;verticalAlign=top;spacingLeft=4;spacingRight=4;overflow=hidden;rotatable=0;points=[[0,0.5],[1,0.5]];portConstraint=eastwest;fontSize=11;" vertex="1" parent="jA7vhIhsQU3gE75cj8yv-1">
          <mxGeometry y="52" width="300" height="26" as="geometry" />
        </mxCell>
        <mxCell id="jA7vhIhsQU3gE75cj8yv-240" value="activate_node(UUID, ComputeManagerService): json" style="text;align=left;verticalAlign=top;spacingLeft=4;spacingRight=4;overflow=hidden;rotatable=0;points=[[0,0.5],[1,0.5]];portConstraint=eastwest;fontSize=11;" vertex="1" parent="jA7vhIhsQU3gE75cj8yv-1">
          <mxGeometry y="78" width="300" height="26" as="geometry" />
        </mxCell>
        <mxCell id="jA7vhIhsQU3gE75cj8yv-241" value="deactivate_node(UUID, ComputeManagerService): json" style="text;align=left;verticalAlign=top;spacingLeft=4;spacingRight=4;overflow=hidden;rotatable=0;points=[[0,0.5],[1,0.5]];portConstraint=eastwest;fontSize=11;" vertex="1" parent="jA7vhIhsQU3gE75cj8yv-1">
          <mxGeometry y="104" width="300" height="26" as="geometry" />
        </mxCell>
        <mxCell id="jA7vhIhsQU3gE75cj8yv-242" value="run_node(UUID, ComputeManagerService): json" style="text;align=left;verticalAlign=top;spacingLeft=4;spacingRight=4;overflow=hidden;rotatable=0;points=[[0,0.5],[1,0.5]];portConstraint=eastwest;fontSize=11;" vertex="1" parent="jA7vhIhsQU3gE75cj8yv-1">
          <mxGeometry y="130" width="300" height="26" as="geometry" />
        </mxCell>
        <mxCell id="jA7vhIhsQU3gE75cj8yv-243" value="trigger_node(UUID, ComputeManagerService): json" style="text;align=left;verticalAlign=top;spacingLeft=4;spacingRight=4;overflow=hidden;rotatable=0;points=[[0,0.5],[1,0.5]];portConstraint=eastwest;fontSize=11;" vertex="1" parent="jA7vhIhsQU3gE75cj8yv-1">
          <mxGeometry y="156" width="300" height="26" as="geometry" />
        </mxCell>
        <mxCell id="jA7vhIhsQU3gE75cj8yv-244" value="get_node(UUID, ComputeManagerService): json" style="text;align=left;verticalAlign=top;spacingLeft=4;spacingRight=4;overflow=hidden;rotatable=0;points=[[0,0.5],[1,0.5]];portConstraint=eastwest;fontSize=11;" vertex="1" parent="jA7vhIhsQU3gE75cj8yv-1">
          <mxGeometry y="182" width="300" height="26" as="geometry" />
        </mxCell>
        <mxCell id="jA7vhIhsQU3gE75cj8yv-245" value="get_all_nodes(ComputeManagerService): json" style="text;align=left;verticalAlign=top;spacingLeft=4;spacingRight=4;overflow=hidden;rotatable=0;points=[[0,0.5],[1,0.5]];portConstraint=eastwest;fontSize=11;" vertex="1" parent="jA7vhIhsQU3gE75cj8yv-1">
          <mxGeometry y="208" width="300" height="26" as="geometry" />
        </mxCell>
        <mxCell id="jA7vhIhsQU3gE75cj8yv-11" value="AggregateOperation" style="swimlane;fontStyle=2;align=center;verticalAlign=top;childLayout=stackLayout;horizontal=1;startSize=26;horizontalStack=0;resizeParent=1;resizeLast=0;collapsible=1;marginBottom=0;rounded=0;shadow=0;strokeWidth=1;fillColor=#cce5ff;strokeColor=#36393d;" vertex="1" parent="WIyWlLk6GJQsqaUBKTNV-1">
          <mxGeometry x="-140" y="834.5" width="200" height="238" as="geometry">
            <mxRectangle x="230" y="140" width="160" height="26" as="alternateBounds" />
          </mxGeometry>
        </mxCell>
        <mxCell id="jA7vhIhsQU3gE75cj8yv-213" value="config: Config" style="text;html=1;align=center;verticalAlign=middle;resizable=0;points=[];autosize=1;strokeColor=none;fillColor=none;fontSize=10;" vertex="1" parent="jA7vhIhsQU3gE75cj8yv-11">
          <mxGeometry y="26" width="200" height="30" as="geometry" />
        </mxCell>
        <mxCell id="jA7vhIhsQU3gE75cj8yv-12" value="" style="line;html=1;strokeWidth=1;align=left;verticalAlign=middle;spacingTop=-1;spacingLeft=3;spacingRight=3;rotatable=0;labelPosition=right;points=[];portConstraint=eastwest;" vertex="1" parent="jA7vhIhsQU3gE75cj8yv-11">
          <mxGeometry y="56" width="200" height="2" as="geometry" />
        </mxCell>
        <mxCell id="jA7vhIhsQU3gE75cj8yv-214" value="operation(): List[DataPointValue], float" style="text;html=1;align=center;verticalAlign=middle;resizable=0;points=[];autosize=1;strokeColor=none;fillColor=none;fontSize=10;" vertex="1" parent="jA7vhIhsQU3gE75cj8yv-11">
          <mxGeometry y="58" width="200" height="30" as="geometry" />
        </mxCell>
        <mxCell id="jA7vhIhsQU3gE75cj8yv-215" value="aggregate_singular(): float" style="text;html=1;align=center;verticalAlign=middle;resizable=0;points=[];autosize=1;strokeColor=none;fillColor=none;fontSize=10;" vertex="1" parent="jA7vhIhsQU3gE75cj8yv-11">
          <mxGeometry y="88" width="200" height="30" as="geometry" />
        </mxCell>
        <mxCell id="jA7vhIhsQU3gE75cj8yv-216" value="aggregate_series(): List[DataPointValue]" style="text;html=1;align=center;verticalAlign=middle;resizable=0;points=[];autosize=1;strokeColor=none;fillColor=none;fontSize=10;" vertex="1" parent="jA7vhIhsQU3gE75cj8yv-11">
          <mxGeometry y="118" width="200" height="30" as="geometry" />
        </mxCell>
        <mxCell id="jA7vhIhsQU3gE75cj8yv-219" value="interpolate(): List[List[DataPointValue]]" style="text;html=1;align=center;verticalAlign=middle;resizable=0;points=[];autosize=1;strokeColor=none;fillColor=none;fontSize=10;" vertex="1" parent="jA7vhIhsQU3gE75cj8yv-11">
          <mxGeometry y="148" width="200" height="30" as="geometry" />
        </mxCell>
        <mxCell id="jA7vhIhsQU3gE75cj8yv-218" value="get_domain_values(): Set[datetime]" style="text;html=1;align=center;verticalAlign=middle;resizable=0;points=[];autosize=1;strokeColor=none;fillColor=none;fontSize=10;" vertex="1" parent="jA7vhIhsQU3gE75cj8yv-11">
          <mxGeometry y="178" width="200" height="30" as="geometry" />
        </mxCell>
        <mxCell id="jA7vhIhsQU3gE75cj8yv-217" value="aggregate(List[float]): float" style="text;html=1;align=center;verticalAlign=middle;resizable=0;points=[];autosize=1;strokeColor=none;fillColor=none;fontSize=10;" vertex="1" parent="jA7vhIhsQU3gE75cj8yv-11">
          <mxGeometry y="208" width="200" height="30" as="geometry" />
        </mxCell>
        <mxCell id="jA7vhIhsQU3gE75cj8yv-47" style="edgeStyle=orthogonalEdgeStyle;rounded=0;orthogonalLoop=1;jettySize=auto;html=1;exitX=0.5;exitY=1;exitDx=0;exitDy=0;entryX=0.5;entryY=0;entryDx=0;entryDy=0;" edge="1" parent="WIyWlLk6GJQsqaUBKTNV-1" source="jA7vhIhsQU3gE75cj8yv-15" target="jA7vhIhsQU3gE75cj8yv-11">
          <mxGeometry relative="1" as="geometry" />
        </mxCell>
        <mxCell id="jA7vhIhsQU3gE75cj8yv-15" value="Sum" style="swimlane;fontStyle=2;align=center;verticalAlign=top;childLayout=stackLayout;horizontal=1;startSize=26;horizontalStack=0;resizeParent=1;resizeLast=0;collapsible=1;marginBottom=0;rounded=0;shadow=0;strokeWidth=1;fillColor=#cce5ff;strokeColor=#36393d;" vertex="1" parent="WIyWlLk6GJQsqaUBKTNV-1">
          <mxGeometry x="-220" y="701" width="135" height="56" as="geometry">
            <mxRectangle x="230" y="140" width="160" height="26" as="alternateBounds" />
          </mxGeometry>
        </mxCell>
        <mxCell id="jA7vhIhsQU3gE75cj8yv-21" value="aggregate(List[float]): float" style="text;html=1;align=center;verticalAlign=middle;resizable=0;points=[];autosize=1;strokeColor=none;fillColor=none;fontSize=10;" vertex="1" parent="jA7vhIhsQU3gE75cj8yv-15">
          <mxGeometry y="26" width="135" height="30" as="geometry" />
        </mxCell>
        <mxCell id="jA7vhIhsQU3gE75cj8yv-46" style="edgeStyle=orthogonalEdgeStyle;rounded=0;orthogonalLoop=1;jettySize=auto;html=1;exitX=0.5;exitY=1;exitDx=0;exitDy=0;entryX=0.5;entryY=0;entryDx=0;entryDy=0;" edge="1" parent="WIyWlLk6GJQsqaUBKTNV-1" source="jA7vhIhsQU3gE75cj8yv-22" target="jA7vhIhsQU3gE75cj8yv-11">
          <mxGeometry relative="1" as="geometry" />
        </mxCell>
        <mxCell id="jA7vhIhsQU3gE75cj8yv-22" value="Average" style="swimlane;fontStyle=2;align=center;verticalAlign=top;childLayout=stackLayout;horizontal=1;startSize=26;horizontalStack=0;resizeParent=1;resizeLast=0;collapsible=1;marginBottom=0;rounded=0;shadow=0;strokeWidth=1;fillColor=#cce5ff;strokeColor=#36393d;" vertex="1" parent="WIyWlLk6GJQsqaUBKTNV-1">
          <mxGeometry x="-77" y="701" width="134" height="56" as="geometry">
            <mxRectangle x="230" y="140" width="160" height="26" as="alternateBounds" />
          </mxGeometry>
        </mxCell>
        <mxCell id="jA7vhIhsQU3gE75cj8yv-23" value="aggregate(List[float]): float" style="text;html=1;align=center;verticalAlign=middle;resizable=0;points=[];autosize=1;strokeColor=none;fillColor=none;fontSize=10;" vertex="1" parent="jA7vhIhsQU3gE75cj8yv-22">
          <mxGeometry y="26" width="134" height="30" as="geometry" />
        </mxCell>
        <mxCell id="jA7vhIhsQU3gE75cj8yv-45" style="edgeStyle=orthogonalEdgeStyle;rounded=0;orthogonalLoop=1;jettySize=auto;html=1;exitX=0.5;exitY=1;exitDx=0;exitDy=0;entryX=0.5;entryY=0;entryDx=0;entryDy=0;" edge="1" parent="WIyWlLk6GJQsqaUBKTNV-1" source="jA7vhIhsQU3gE75cj8yv-24" target="jA7vhIhsQU3gE75cj8yv-11">
          <mxGeometry relative="1" as="geometry" />
        </mxCell>
        <mxCell id="jA7vhIhsQU3gE75cj8yv-24" value="Minimum" style="swimlane;fontStyle=2;align=center;verticalAlign=top;childLayout=stackLayout;horizontal=1;startSize=26;horizontalStack=0;resizeParent=1;resizeLast=0;collapsible=1;marginBottom=0;rounded=0;shadow=0;strokeWidth=1;fillColor=#cce5ff;strokeColor=#36393d;" vertex="1" parent="WIyWlLk6GJQsqaUBKTNV-1">
          <mxGeometry x="70" y="701" width="135" height="56" as="geometry">
            <mxRectangle x="230" y="140" width="160" height="26" as="alternateBounds" />
          </mxGeometry>
        </mxCell>
        <mxCell id="jA7vhIhsQU3gE75cj8yv-25" value="aggregate(List[float]): float" style="text;html=1;align=center;verticalAlign=middle;resizable=0;points=[];autosize=1;strokeColor=none;fillColor=none;fontSize=10;" vertex="1" parent="jA7vhIhsQU3gE75cj8yv-24">
          <mxGeometry y="26" width="135" height="30" as="geometry" />
        </mxCell>
        <mxCell id="jA7vhIhsQU3gE75cj8yv-44" style="edgeStyle=orthogonalEdgeStyle;rounded=0;orthogonalLoop=1;jettySize=auto;html=1;exitX=0.5;exitY=1;exitDx=0;exitDy=0;entryX=0.5;entryY=0;entryDx=0;entryDy=0;" edge="1" parent="WIyWlLk6GJQsqaUBKTNV-1" source="jA7vhIhsQU3gE75cj8yv-28" target="jA7vhIhsQU3gE75cj8yv-11">
          <mxGeometry relative="1" as="geometry" />
        </mxCell>
        <mxCell id="jA7vhIhsQU3gE75cj8yv-28" value="Maximum" style="swimlane;fontStyle=2;align=center;verticalAlign=top;childLayout=stackLayout;horizontal=1;startSize=26;horizontalStack=0;resizeParent=1;resizeLast=0;collapsible=1;marginBottom=0;rounded=0;shadow=0;strokeWidth=1;fillColor=#cce5ff;strokeColor=#36393d;" vertex="1" parent="WIyWlLk6GJQsqaUBKTNV-1">
          <mxGeometry x="210" y="701" width="135" height="56" as="geometry">
            <mxRectangle x="230" y="140" width="160" height="26" as="alternateBounds" />
          </mxGeometry>
        </mxCell>
        <mxCell id="jA7vhIhsQU3gE75cj8yv-29" value="aggregate(List[float]): float" style="text;html=1;align=center;verticalAlign=middle;resizable=0;points=[];autosize=1;strokeColor=none;fillColor=none;fontSize=10;" vertex="1" parent="jA7vhIhsQU3gE75cj8yv-28">
          <mxGeometry y="26" width="135" height="30" as="geometry" />
        </mxCell>
        <mxCell id="jA7vhIhsQU3gE75cj8yv-48" style="edgeStyle=orthogonalEdgeStyle;rounded=0;orthogonalLoop=1;jettySize=auto;html=1;exitX=0;exitY=0.5;exitDx=0;exitDy=0;entryX=0.5;entryY=0;entryDx=0;entryDy=0;endArrow=open;endFill=0;" edge="1" parent="WIyWlLk6GJQsqaUBKTNV-1" source="jA7vhIhsQU3gE75cj8yv-204" target="jA7vhIhsQU3gE75cj8yv-15">
          <mxGeometry relative="1" as="geometry">
            <Array as="points">
              <mxPoint x="90" y="659" />
              <mxPoint x="90" y="680" />
              <mxPoint x="-152" y="680" />
              <mxPoint x="-152" y="701" />
            </Array>
          </mxGeometry>
        </mxCell>
        <mxCell id="jA7vhIhsQU3gE75cj8yv-49" style="edgeStyle=orthogonalEdgeStyle;rounded=0;orthogonalLoop=1;jettySize=auto;html=1;exitX=0;exitY=0.5;exitDx=0;exitDy=0;entryX=0.5;entryY=0;entryDx=0;entryDy=0;endArrow=open;endFill=0;" edge="1" parent="WIyWlLk6GJQsqaUBKTNV-1" source="jA7vhIhsQU3gE75cj8yv-204" target="jA7vhIhsQU3gE75cj8yv-22">
          <mxGeometry relative="1" as="geometry">
            <Array as="points">
              <mxPoint x="90" y="659" />
              <mxPoint x="90" y="680" />
              <mxPoint x="-10" y="680" />
            </Array>
          </mxGeometry>
        </mxCell>
        <mxCell id="jA7vhIhsQU3gE75cj8yv-50" style="edgeStyle=orthogonalEdgeStyle;rounded=0;orthogonalLoop=1;jettySize=auto;html=1;exitX=0;exitY=0.5;exitDx=0;exitDy=0;entryX=0.5;entryY=0;entryDx=0;entryDy=0;endArrow=open;endFill=0;" edge="1" parent="WIyWlLk6GJQsqaUBKTNV-1" source="jA7vhIhsQU3gE75cj8yv-204" target="jA7vhIhsQU3gE75cj8yv-24">
          <mxGeometry relative="1" as="geometry">
            <Array as="points">
              <mxPoint x="90" y="659" />
              <mxPoint x="90" y="680" />
              <mxPoint x="138" y="680" />
              <mxPoint x="138" y="701" />
            </Array>
          </mxGeometry>
        </mxCell>
        <mxCell id="jA7vhIhsQU3gE75cj8yv-51" style="edgeStyle=orthogonalEdgeStyle;rounded=0;orthogonalLoop=1;jettySize=auto;html=1;exitX=0;exitY=0.5;exitDx=0;exitDy=0;entryX=0.5;entryY=0;entryDx=0;entryDy=0;endArrow=open;endFill=0;" edge="1" parent="WIyWlLk6GJQsqaUBKTNV-1" source="jA7vhIhsQU3gE75cj8yv-204" target="jA7vhIhsQU3gE75cj8yv-28">
          <mxGeometry relative="1" as="geometry">
            <Array as="points">
              <mxPoint x="90" y="659" />
              <mxPoint x="90" y="680" />
              <mxPoint x="278" y="680" />
              <mxPoint x="278" y="701" />
            </Array>
          </mxGeometry>
        </mxCell>
        <mxCell id="jA7vhIhsQU3gE75cj8yv-37" value="ConfigService" style="swimlane;fontStyle=0;align=center;verticalAlign=top;childLayout=stackLayout;horizontal=1;startSize=26;horizontalStack=0;resizeParent=1;resizeLast=0;collapsible=1;marginBottom=0;rounded=0;shadow=0;strokeWidth=1;fillColor=#cce5ff;strokeColor=#36393d;" vertex="1" parent="WIyWlLk6GJQsqaUBKTNV-1">
          <mxGeometry x="114" y="460" width="192" height="212" as="geometry">
            <mxRectangle x="130" y="380" width="160" height="26" as="alternateBounds" />
          </mxGeometry>
        </mxCell>
        <mxCell id="jA7vhIhsQU3gE75cj8yv-38" value="config: Config" style="text;align=left;verticalAlign=top;spacingLeft=4;spacingRight=4;overflow=hidden;rotatable=0;points=[[0,0.5],[1,0.5]];portConstraint=eastwest;" vertex="1" parent="jA7vhIhsQU3gE75cj8yv-37">
          <mxGeometry y="26" width="192" height="26" as="geometry" />
        </mxCell>
        <mxCell id="jA7vhIhsQU3gE75cj8yv-39" value="" style="line;html=1;strokeWidth=1;align=left;verticalAlign=middle;spacingTop=-1;spacingLeft=3;spacingRight=3;rotatable=0;labelPosition=right;points=[];portConstraint=eastwest;" vertex="1" parent="jA7vhIhsQU3gE75cj8yv-37">
          <mxGeometry y="52" width="192" height="8" as="geometry" />
        </mxCell>
        <mxCell id="jA7vhIhsQU3gE75cj8yv-205" value="get_data()" style="text;align=left;verticalAlign=top;spacingLeft=4;spacingRight=4;overflow=hidden;rotatable=0;points=[[0,0.5],[1,0.5]];portConstraint=eastwest;" vertex="1" parent="jA7vhIhsQU3gE75cj8yv-37">
          <mxGeometry y="60" width="192" height="26" as="geometry" />
        </mxCell>
        <mxCell id="jA7vhIhsQU3gE75cj8yv-206" value="get_input_data_current_value()" style="text;align=left;verticalAlign=top;spacingLeft=4;spacingRight=4;overflow=hidden;rotatable=0;points=[[0,0.5],[1,0.5]];portConstraint=eastwest;" vertex="1" parent="jA7vhIhsQU3gE75cj8yv-37">
          <mxGeometry y="86" width="192" height="26" as="geometry" />
        </mxCell>
        <mxCell id="jA7vhIhsQU3gE75cj8yv-207" value="get_input_data_start_end()" style="text;align=left;verticalAlign=top;spacingLeft=4;spacingRight=4;overflow=hidden;rotatable=0;points=[[0,0.5],[1,0.5]];portConstraint=eastwest;" vertex="1" parent="jA7vhIhsQU3gE75cj8yv-37">
          <mxGeometry y="112" width="192" height="26" as="geometry" />
        </mxCell>
        <mxCell id="jA7vhIhsQU3gE75cj8yv-208" value="get_input_data_value_at_time()" style="text;align=left;verticalAlign=top;spacingLeft=4;spacingRight=4;overflow=hidden;rotatable=0;points=[[0,0.5],[1,0.5]];portConstraint=eastwest;" vertex="1" parent="jA7vhIhsQU3gE75cj8yv-37">
          <mxGeometry y="138" width="192" height="24" as="geometry" />
        </mxCell>
        <mxCell id="jA7vhIhsQU3gE75cj8yv-209" value="get_input_data_present_past()" style="text;align=left;verticalAlign=top;spacingLeft=4;spacingRight=4;overflow=hidden;rotatable=0;points=[[0,0.5],[1,0.5]];portConstraint=eastwest;" vertex="1" parent="jA7vhIhsQU3gE75cj8yv-37">
          <mxGeometry y="162" width="192" height="24" as="geometry" />
        </mxCell>
        <mxCell id="jA7vhIhsQU3gE75cj8yv-204" value="process_config_operation()" style="text;align=left;verticalAlign=top;spacingLeft=4;spacingRight=4;overflow=hidden;rotatable=0;points=[[0,0.5],[1,0.5]];portConstraint=eastwest;" vertex="1" parent="jA7vhIhsQU3gE75cj8yv-37">
          <mxGeometry y="186" width="192" height="26" as="geometry" />
        </mxCell>
        <mxCell id="jA7vhIhsQU3gE75cj8yv-40" value="Data fetcher service" style="swimlane;fontStyle=0;align=center;verticalAlign=top;childLayout=stackLayout;horizontal=1;startSize=26;horizontalStack=0;resizeParent=1;resizeLast=0;collapsible=1;marginBottom=0;rounded=0;shadow=0;strokeWidth=1;fillColor=#cce5ff;strokeColor=#36393d;" vertex="1" parent="WIyWlLk6GJQsqaUBKTNV-1">
          <mxGeometry x="414" y="528" width="236" height="156" as="geometry">
            <mxRectangle x="130" y="380" width="160" height="26" as="alternateBounds" />
          </mxGeometry>
        </mxCell>
        <mxCell id="jA7vhIhsQU3gE75cj8yv-41" value="get_data_from_graph_ql(...): dict[str, any]" style="text;align=left;verticalAlign=top;spacingLeft=4;spacingRight=4;overflow=hidden;rotatable=0;points=[[0,0.5],[1,0.5]];portConstraint=eastwest;fontSize=10;" vertex="1" parent="jA7vhIhsQU3gE75cj8yv-40">
          <mxGeometry y="26" width="236" height="26" as="geometry" />
        </mxCell>
        <mxCell id="jA7vhIhsQU3gE75cj8yv-234" value="get_current_value_from_id(str): DataPointValue" style="text;align=left;verticalAlign=top;spacingLeft=4;spacingRight=4;overflow=hidden;rotatable=0;points=[[0,0.5],[1,0.5]];portConstraint=eastwest;fontSize=9;" vertex="1" parent="jA7vhIhsQU3gE75cj8yv-40">
          <mxGeometry y="52" width="236" height="26" as="geometry" />
        </mxCell>
        <mxCell id="jA7vhIhsQU3gE75cj8yv-235" value="get_values_within_time_range_by_id(...): List[DataPointValue]" style="text;align=left;verticalAlign=top;spacingLeft=4;spacingRight=4;overflow=hidden;rotatable=0;points=[[0,0.5],[1,0.5]];portConstraint=eastwest;fontSize=8;" vertex="1" parent="jA7vhIhsQU3gE75cj8yv-40">
          <mxGeometry y="78" width="236" height="26" as="geometry" />
        </mxCell>
        <mxCell id="jA7vhIhsQU3gE75cj8yv-236" value="get_value_at_time(...): DataPointValue" style="text;align=left;verticalAlign=top;spacingLeft=4;spacingRight=4;overflow=hidden;rotatable=0;points=[[0,0.5],[1,0.5]];portConstraint=eastwest;fontSize=8;" vertex="1" parent="jA7vhIhsQU3gE75cj8yv-40">
          <mxGeometry y="104" width="236" height="26" as="geometry" />
        </mxCell>
        <mxCell id="jA7vhIhsQU3gE75cj8yv-237" value="get_aggregated_values_with_interval(...): List[DataPointValue]" style="text;align=left;verticalAlign=top;spacingLeft=4;spacingRight=4;overflow=hidden;rotatable=0;points=[[0,0.5],[1,0.5]];portConstraint=eastwest;fontSize=8;" vertex="1" parent="jA7vhIhsQU3gE75cj8yv-40">
          <mxGeometry y="130" width="236" height="26" as="geometry" />
        </mxCell>
        <mxCell id="jA7vhIhsQU3gE75cj8yv-55" style="edgeStyle=orthogonalEdgeStyle;rounded=0;orthogonalLoop=1;jettySize=auto;html=1;exitX=0;exitY=0.5;exitDx=0;exitDy=0;entryX=1;entryY=0.5;entryDx=0;entryDy=0;endArrow=diamondThin;endFill=0;" edge="1" parent="WIyWlLk6GJQsqaUBKTNV-1" source="jA7vhIhsQU3gE75cj8yv-38" target="zkfFHV4jXpPFQw0GAbJ--6">
          <mxGeometry relative="1" as="geometry" />
        </mxCell>
        <mxCell id="jA7vhIhsQU3gE75cj8yv-264" value="1" style="edgeLabel;html=1;align=center;verticalAlign=middle;resizable=0;points=[];" vertex="1" connectable="0" parent="jA7vhIhsQU3gE75cj8yv-55">
          <mxGeometry x="0.6144" y="1" relative="1" as="geometry">
            <mxPoint x="-10" y="-10" as="offset" />
          </mxGeometry>
        </mxCell>
        <mxCell id="jA7vhIhsQU3gE75cj8yv-265" value="1" style="edgeLabel;html=1;align=center;verticalAlign=middle;resizable=0;points=[];" vertex="1" connectable="0" parent="jA7vhIhsQU3gE75cj8yv-55">
          <mxGeometry x="-0.6074" y="-2" relative="1" as="geometry">
            <mxPoint x="7" y="13" as="offset" />
          </mxGeometry>
        </mxCell>
        <mxCell id="jA7vhIhsQU3gE75cj8yv-57" style="edgeStyle=orthogonalEdgeStyle;rounded=0;orthogonalLoop=1;jettySize=auto;html=1;exitX=1;exitY=0.5;exitDx=0;exitDy=0;entryX=0;entryY=0.5;entryDx=0;entryDy=0;endArrow=open;endFill=0;" edge="1" parent="WIyWlLk6GJQsqaUBKTNV-1" source="jA7vhIhsQU3gE75cj8yv-205" target="jA7vhIhsQU3gE75cj8yv-41">
          <mxGeometry relative="1" as="geometry">
            <Array as="points">
              <mxPoint x="390" y="533" />
              <mxPoint x="390" y="567" />
            </Array>
          </mxGeometry>
        </mxCell>
        <mxCell id="jA7vhIhsQU3gE75cj8yv-58" style="edgeStyle=orthogonalEdgeStyle;rounded=0;orthogonalLoop=1;jettySize=auto;html=1;exitX=0;exitY=0.5;exitDx=0;exitDy=0;entryX=1;entryY=0.5;entryDx=0;entryDy=0;endArrow=diamondThin;endFill=0;" edge="1" parent="WIyWlLk6GJQsqaUBKTNV-1" source="zkfFHV4jXpPFQw0GAbJ--7" target="zkfFHV4jXpPFQw0GAbJ--3">
          <mxGeometry relative="1" as="geometry" />
        </mxCell>
        <mxCell id="jA7vhIhsQU3gE75cj8yv-266" value="1" style="edgeLabel;html=1;align=center;verticalAlign=middle;resizable=0;points=[];" vertex="1" connectable="0" parent="jA7vhIhsQU3gE75cj8yv-58">
          <mxGeometry x="-0.6725" y="1" relative="1" as="geometry">
            <mxPoint x="11" y="-14" as="offset" />
          </mxGeometry>
        </mxCell>
        <mxCell id="jA7vhIhsQU3gE75cj8yv-267" value="1" style="edgeLabel;html=1;align=center;verticalAlign=middle;resizable=0;points=[];" vertex="1" connectable="0" parent="jA7vhIhsQU3gE75cj8yv-58">
          <mxGeometry x="0.7634" y="-2" relative="1" as="geometry">
            <mxPoint y="-7" as="offset" />
          </mxGeometry>
        </mxCell>
        <mxCell id="jA7vhIhsQU3gE75cj8yv-87" style="edgeStyle=orthogonalEdgeStyle;rounded=0;orthogonalLoop=1;jettySize=auto;html=1;entryX=0.5;entryY=0;entryDx=0;entryDy=0;endArrow=diamondThin;endFill=0;exitX=0.25;exitY=1;exitDx=0;exitDy=0;" edge="1" parent="WIyWlLk6GJQsqaUBKTNV-1" source="jA7vhIhsQU3gE75cj8yv-61" target="zkfFHV4jXpPFQw0GAbJ--0">
          <mxGeometry relative="1" as="geometry">
            <Array as="points">
              <mxPoint x="-10" y="420" />
              <mxPoint x="-360" y="420" />
            </Array>
          </mxGeometry>
        </mxCell>
        <mxCell id="jA7vhIhsQU3gE75cj8yv-257" value="1" style="edgeLabel;html=1;align=center;verticalAlign=middle;resizable=0;points=[];" vertex="1" connectable="0" parent="jA7vhIhsQU3gE75cj8yv-87">
          <mxGeometry x="0.7849" y="2" relative="1" as="geometry">
            <mxPoint x="-16" y="38" as="offset" />
          </mxGeometry>
        </mxCell>
        <mxCell id="jA7vhIhsQU3gE75cj8yv-258" value="0..*" style="edgeLabel;html=1;align=center;verticalAlign=middle;resizable=0;points=[];" vertex="1" connectable="0" parent="jA7vhIhsQU3gE75cj8yv-87">
          <mxGeometry x="-0.926" y="-1" relative="1" as="geometry">
            <mxPoint x="-19" y="-7" as="offset" />
          </mxGeometry>
        </mxCell>
        <mxCell id="jA7vhIhsQU3gE75cj8yv-88" style="edgeStyle=orthogonalEdgeStyle;rounded=0;orthogonalLoop=1;jettySize=auto;html=1;exitX=0.5;exitY=1;exitDx=0;exitDy=0;entryX=0.5;entryY=0;entryDx=0;entryDy=0;endArrow=diamondThin;endFill=0;" edge="1" parent="WIyWlLk6GJQsqaUBKTNV-1" source="jA7vhIhsQU3gE75cj8yv-61" target="zkfFHV4jXpPFQw0GAbJ--6">
          <mxGeometry relative="1" as="geometry">
            <Array as="points">
              <mxPoint x="30" y="440" />
              <mxPoint x="-50" y="440" />
            </Array>
          </mxGeometry>
        </mxCell>
        <mxCell id="jA7vhIhsQU3gE75cj8yv-259" value="1" style="edgeLabel;html=1;align=center;verticalAlign=middle;resizable=0;points=[];" vertex="1" connectable="0" parent="jA7vhIhsQU3gE75cj8yv-88">
          <mxGeometry x="-0.8513" relative="1" as="geometry">
            <mxPoint x="10" y="-7" as="offset" />
          </mxGeometry>
        </mxCell>
        <mxCell id="jA7vhIhsQU3gE75cj8yv-260" value="1" style="edgeLabel;html=1;align=center;verticalAlign=middle;resizable=0;points=[];" vertex="1" connectable="0" parent="jA7vhIhsQU3gE75cj8yv-88">
          <mxGeometry x="0.427" y="-2" relative="1" as="geometry">
            <mxPoint x="-31" y="22" as="offset" />
          </mxGeometry>
        </mxCell>
        <mxCell id="jA7vhIhsQU3gE75cj8yv-131" style="edgeStyle=orthogonalEdgeStyle;rounded=0;orthogonalLoop=1;jettySize=auto;html=1;entryX=1;entryY=0.829;entryDx=0;entryDy=0;endArrow=none;endFill=0;startArrow=open;startFill=0;exitX=0;exitY=0.5;exitDx=0;exitDy=0;entryPerimeter=0;" edge="1" parent="WIyWlLk6GJQsqaUBKTNV-1" source="jA7vhIhsQU3gE75cj8yv-161" target="jA7vhIhsQU3gE75cj8yv-244">
          <mxGeometry relative="1" as="geometry">
            <mxPoint x="-50" y="300" as="sourcePoint" />
            <Array as="points">
              <mxPoint x="-310" y="354" />
            </Array>
          </mxGeometry>
        </mxCell>
        <mxCell id="jA7vhIhsQU3gE75cj8yv-61" value="ComputeNode" style="swimlane;fontStyle=0;align=center;verticalAlign=top;childLayout=stackLayout;horizontal=1;startSize=26;horizontalStack=0;resizeParent=1;resizeLast=0;collapsible=1;marginBottom=0;rounded=0;shadow=0;strokeWidth=1;fillColor=#cce5ff;strokeColor=#36393d;" vertex="1" parent="WIyWlLk6GJQsqaUBKTNV-1">
          <mxGeometry x="-50" y="260" width="160" height="110" as="geometry">
            <mxRectangle x="130" y="380" width="160" height="26" as="alternateBounds" />
          </mxGeometry>
        </mxCell>
        <mxCell id="jA7vhIhsQU3gE75cj8yv-160" value="node_id: UUID" style="text;align=left;verticalAlign=top;spacingLeft=4;spacingRight=4;overflow=hidden;rotatable=0;points=[[0,0.5],[1,0.5]];portConstraint=eastwest;" vertex="1" parent="jA7vhIhsQU3gE75cj8yv-61">
          <mxGeometry y="26" width="160" height="26" as="geometry" />
        </mxCell>
        <mxCell id="jA7vhIhsQU3gE75cj8yv-62" value="config: Config" style="text;align=left;verticalAlign=top;spacingLeft=4;spacingRight=4;overflow=hidden;rotatable=0;points=[[0,0.5],[1,0.5]];portConstraint=eastwest;" vertex="1" parent="jA7vhIhsQU3gE75cj8yv-61">
          <mxGeometry y="52" width="160" height="28" as="geometry" />
        </mxCell>
        <mxCell id="jA7vhIhsQU3gE75cj8yv-161" value="continuous_trigger: Trigger" style="text;align=left;verticalAlign=top;spacingLeft=4;spacingRight=4;overflow=hidden;rotatable=0;points=[[0,0.5],[1,0.5]];portConstraint=eastwest;" vertex="1" parent="jA7vhIhsQU3gE75cj8yv-61">
          <mxGeometry y="80" width="160" height="28" as="geometry" />
        </mxCell>
        <mxCell id="jA7vhIhsQU3gE75cj8yv-89" style="edgeStyle=orthogonalEdgeStyle;rounded=0;orthogonalLoop=1;jettySize=auto;html=1;exitX=0.5;exitY=1;exitDx=0;exitDy=0;endArrow=diamondThin;endFill=0;entryX=0.75;entryY=0;entryDx=0;entryDy=0;" edge="1" parent="WIyWlLk6GJQsqaUBKTNV-1" source="jA7vhIhsQU3gE75cj8yv-64" target="jA7vhIhsQU3gE75cj8yv-37">
          <mxGeometry relative="1" as="geometry">
            <mxPoint x="204" y="395" as="sourcePoint" />
            <mxPoint x="250.02857142857147" y="526" as="targetPoint" />
            <Array as="points">
              <mxPoint x="248" y="430" />
              <mxPoint x="258" y="430" />
            </Array>
          </mxGeometry>
        </mxCell>
        <mxCell id="jA7vhIhsQU3gE75cj8yv-262" value="1" style="edgeLabel;html=1;align=center;verticalAlign=middle;resizable=0;points=[];" vertex="1" connectable="0" parent="jA7vhIhsQU3gE75cj8yv-89">
          <mxGeometry x="0.4558" y="-1" relative="1" as="geometry">
            <mxPoint x="-9" as="offset" />
          </mxGeometry>
        </mxCell>
        <mxCell id="jA7vhIhsQU3gE75cj8yv-90" style="edgeStyle=orthogonalEdgeStyle;rounded=0;orthogonalLoop=1;jettySize=auto;html=1;endArrow=diamondThin;endFill=0;entryX=1;entryY=0.056;entryDx=0;entryDy=0;entryPerimeter=0;exitX=0.5;exitY=1;exitDx=0;exitDy=0;" edge="1" parent="WIyWlLk6GJQsqaUBKTNV-1" source="jA7vhIhsQU3gE75cj8yv-64" target="jA7vhIhsQU3gE75cj8yv-11">
          <mxGeometry relative="1" as="geometry">
            <mxPoint x="230" y="420" as="sourcePoint" />
            <mxPoint x="20" y="940" as="targetPoint" />
            <Array as="points">
              <mxPoint x="248" y="430" />
              <mxPoint x="670" y="430" />
              <mxPoint x="670" y="848" />
            </Array>
          </mxGeometry>
        </mxCell>
        <mxCell id="jA7vhIhsQU3gE75cj8yv-261" value="1" style="edgeLabel;html=1;align=center;verticalAlign=middle;resizable=0;points=[];" vertex="1" connectable="0" parent="jA7vhIhsQU3gE75cj8yv-90">
          <mxGeometry x="-0.9854" y="-2" relative="1" as="geometry">
            <mxPoint x="-6" as="offset" />
          </mxGeometry>
        </mxCell>
        <mxCell id="jA7vhIhsQU3gE75cj8yv-263" value="1" style="edgeLabel;html=1;align=center;verticalAlign=middle;resizable=0;points=[];" vertex="1" connectable="0" parent="jA7vhIhsQU3gE75cj8yv-90">
          <mxGeometry x="0.9609" y="4" relative="1" as="geometry">
            <mxPoint x="-19" y="-12" as="offset" />
          </mxGeometry>
        </mxCell>
        <mxCell id="jA7vhIhsQU3gE75cj8yv-64" value="Config" style="swimlane;fontStyle=0;align=center;verticalAlign=top;childLayout=stackLayout;horizontal=1;startSize=26;horizontalStack=0;resizeParent=1;resizeLast=0;collapsible=1;marginBottom=0;rounded=0;shadow=0;strokeWidth=1;fillColor=#cce5ff;strokeColor=#36393d;" vertex="1" parent="WIyWlLk6GJQsqaUBKTNV-1">
          <mxGeometry x="148" y="260" width="200" height="130" as="geometry">
            <mxRectangle x="130" y="380" width="160" height="26" as="alternateBounds" />
          </mxGeometry>
        </mxCell>
        <mxCell id="jA7vhIhsQU3gE75cj8yv-163" value="inputs: List[Input]" style="text;align=left;verticalAlign=top;spacingLeft=4;spacingRight=4;overflow=hidden;rotatable=0;points=[[0,0.5],[1,0.5]];portConstraint=eastwest;" vertex="1" parent="jA7vhIhsQU3gE75cj8yv-64">
          <mxGeometry y="26" width="200" height="26" as="geometry" />
        </mxCell>
        <mxCell id="jA7vhIhsQU3gE75cj8yv-164" value="formula_settings: FormulaSettings" style="text;align=left;verticalAlign=top;spacingLeft=4;spacingRight=4;overflow=hidden;rotatable=0;points=[[0,0.5],[1,0.5]];portConstraint=eastwest;" vertex="1" parent="jA7vhIhsQU3gE75cj8yv-64">
          <mxGeometry y="52" width="200" height="26" as="geometry" />
        </mxCell>
        <mxCell id="jA7vhIhsQU3gE75cj8yv-65" value="input_settings: InputSettings" style="text;align=left;verticalAlign=top;spacingLeft=4;spacingRight=4;overflow=hidden;rotatable=0;points=[[0,0.5],[1,0.5]];portConstraint=eastwest;" vertex="1" parent="jA7vhIhsQU3gE75cj8yv-64">
          <mxGeometry y="78" width="200" height="26" as="geometry" />
        </mxCell>
        <mxCell id="jA7vhIhsQU3gE75cj8yv-165" value="output: List[DataPointValue], float" style="text;align=left;verticalAlign=top;spacingLeft=4;spacingRight=4;overflow=hidden;rotatable=0;points=[[0,0.5],[1,0.5]];portConstraint=eastwest;" vertex="1" parent="jA7vhIhsQU3gE75cj8yv-64">
          <mxGeometry y="104" width="200" height="26" as="geometry" />
        </mxCell>
        <mxCell id="jA7vhIhsQU3gE75cj8yv-68" style="edgeStyle=orthogonalEdgeStyle;rounded=0;orthogonalLoop=1;jettySize=auto;html=1;exitX=0;exitY=0.5;exitDx=0;exitDy=0;entryX=1;entryY=0.5;entryDx=0;entryDy=0;endArrow=diamondThin;endFill=0;" edge="1" parent="WIyWlLk6GJQsqaUBKTNV-1" source="jA7vhIhsQU3gE75cj8yv-65" target="jA7vhIhsQU3gE75cj8yv-62">
          <mxGeometry relative="1" as="geometry" />
        </mxCell>
        <mxCell id="jA7vhIhsQU3gE75cj8yv-155" value="1" style="edgeLabel;html=1;align=center;verticalAlign=middle;resizable=0;points=[];" vertex="1" connectable="0" parent="jA7vhIhsQU3gE75cj8yv-68">
          <mxGeometry x="0.2094" y="2" relative="1" as="geometry">
            <mxPoint x="-6" y="7" as="offset" />
          </mxGeometry>
        </mxCell>
        <mxCell id="jA7vhIhsQU3gE75cj8yv-157" value="1" style="edgeLabel;html=1;align=center;verticalAlign=middle;resizable=0;points=[];" vertex="1" connectable="0" parent="jA7vhIhsQU3gE75cj8yv-68">
          <mxGeometry x="-0.6482" y="2" relative="1" as="geometry">
            <mxPoint y="-11" as="offset" />
          </mxGeometry>
        </mxCell>
        <mxCell id="jA7vhIhsQU3gE75cj8yv-72" value="Input based" style="swimlane;fontStyle=2;align=center;verticalAlign=top;childLayout=stackLayout;horizontal=1;startSize=26;horizontalStack=0;resizeParent=1;resizeLast=0;collapsible=1;marginBottom=0;rounded=0;shadow=0;strokeWidth=1;fillColor=#cce5ff;strokeColor=#36393d;" vertex="1" parent="WIyWlLk6GJQsqaUBKTNV-1">
          <mxGeometry x="100" y="910" width="234" height="67" as="geometry">
            <mxRectangle x="230" y="140" width="160" height="26" as="alternateBounds" />
          </mxGeometry>
        </mxCell>
        <mxCell id="jA7vhIhsQU3gE75cj8yv-228" value="find_domain_values_from_input(...): Set[DateTime]" style="text;html=1;align=center;verticalAlign=middle;resizable=0;points=[];autosize=1;strokeColor=none;fillColor=none;fontSize=9;" vertex="1" parent="jA7vhIhsQU3gE75cj8yv-72">
          <mxGeometry y="26" width="234" height="20" as="geometry" />
        </mxCell>
        <mxCell id="jA7vhIhsQU3gE75cj8yv-229" value="find_domain_values_from_inputs(...): Set[DateTime]" style="text;html=1;align=center;verticalAlign=middle;resizable=0;points=[];autosize=1;strokeColor=none;fillColor=none;fontSize=9;" vertex="1" parent="jA7vhIhsQU3gE75cj8yv-72">
          <mxGeometry y="46" width="234" height="20" as="geometry" />
        </mxCell>
        <mxCell id="jA7vhIhsQU3gE75cj8yv-76" value="Interval based" style="swimlane;fontStyle=2;align=center;verticalAlign=top;childLayout=stackLayout;horizontal=1;startSize=26;horizontalStack=0;resizeParent=1;resizeLast=0;collapsible=1;marginBottom=0;rounded=0;shadow=0;strokeWidth=1;fillColor=#cce5ff;strokeColor=#36393d;" vertex="1" parent="WIyWlLk6GJQsqaUBKTNV-1">
          <mxGeometry x="100" y="1010" width="250" height="90" as="geometry">
            <mxRectangle x="230" y="140" width="160" height="26" as="alternateBounds" />
          </mxGeometry>
        </mxCell>
        <mxCell id="jA7vhIhsQU3gE75cj8yv-225" value="find_domain_values_from_interval(...): Set[datetime]" style="text;html=1;align=center;verticalAlign=middle;resizable=0;points=[];autosize=1;strokeColor=none;fillColor=none;fontSize=9;" vertex="1" parent="jA7vhIhsQU3gE75cj8yv-76">
          <mxGeometry y="26" width="250" height="20" as="geometry" />
        </mxCell>
        <mxCell id="jA7vhIhsQU3gE75cj8yv-226" value="get_avg_interval_for_dp_list(...): float" style="text;html=1;align=center;verticalAlign=middle;resizable=0;points=[];autosize=1;strokeColor=none;fillColor=none;fontSize=9;" vertex="1" parent="jA7vhIhsQU3gE75cj8yv-76">
          <mxGeometry y="46" width="250" height="20" as="geometry" />
        </mxCell>
        <mxCell id="jA7vhIhsQU3gE75cj8yv-227" value="get_avg_interval(Config): float" style="text;html=1;align=center;verticalAlign=middle;resizable=0;points=[];autosize=1;strokeColor=none;fillColor=none;fontSize=9;" vertex="1" parent="jA7vhIhsQU3gE75cj8yv-76">
          <mxGeometry y="66" width="250" height="20" as="geometry" />
        </mxCell>
        <mxCell id="jA7vhIhsQU3gE75cj8yv-78" value="linear" style="swimlane;fontStyle=2;align=center;verticalAlign=top;childLayout=stackLayout;horizontal=1;startSize=26;horizontalStack=0;resizeParent=1;resizeLast=0;collapsible=1;marginBottom=0;rounded=0;shadow=0;strokeWidth=1;fillColor=#cce5ff;strokeColor=#36393d;" vertex="1" parent="WIyWlLk6GJQsqaUBKTNV-1">
          <mxGeometry x="-600" y="1040" width="200" height="69" as="geometry">
            <mxRectangle x="230" y="140" width="160" height="26" as="alternateBounds" />
          </mxGeometry>
        </mxCell>
        <mxCell id="jA7vhIhsQU3gE75cj8yv-221" value="linear_interpolate(...): List[DataPointValue]" style="text;html=1;align=center;verticalAlign=middle;resizable=0;points=[];autosize=1;strokeColor=none;fillColor=none;fontSize=9;" vertex="1" parent="jA7vhIhsQU3gE75cj8yv-78">
          <mxGeometry y="26" width="200" height="20" as="geometry" />
        </mxCell>
        <mxCell id="jA7vhIhsQU3gE75cj8yv-223" value="extrapolate_start_end_datapoints(...)" style="text;html=1;align=center;verticalAlign=middle;resizable=0;points=[];autosize=1;strokeColor=none;fillColor=none;fontSize=9;" vertex="1" parent="jA7vhIhsQU3gE75cj8yv-78">
          <mxGeometry y="46" width="200" height="20" as="geometry" />
        </mxCell>
        <mxCell id="jA7vhIhsQU3gE75cj8yv-80" value="nearest_neighbor" style="swimlane;fontStyle=2;align=center;verticalAlign=top;childLayout=stackLayout;horizontal=1;startSize=26;horizontalStack=0;resizeParent=1;resizeLast=0;collapsible=1;marginBottom=0;rounded=0;shadow=0;strokeWidth=1;fillColor=#cce5ff;strokeColor=#36393d;" vertex="1" parent="WIyWlLk6GJQsqaUBKTNV-1">
          <mxGeometry x="-390" y="1059" width="233" height="50" as="geometry">
            <mxRectangle x="230" y="140" width="160" height="26" as="alternateBounds" />
          </mxGeometry>
        </mxCell>
        <mxCell id="jA7vhIhsQU3gE75cj8yv-224" value="nearest_neighbor_interpolate(...): List[DataPointValue]" style="text;html=1;align=center;verticalAlign=middle;resizable=0;points=[];autosize=1;strokeColor=none;fillColor=none;fontSize=9;" vertex="1" parent="jA7vhIhsQU3gE75cj8yv-80">
          <mxGeometry y="26" width="233" height="20" as="geometry" />
        </mxCell>
        <mxCell id="jA7vhIhsQU3gE75cj8yv-130" style="edgeStyle=orthogonalEdgeStyle;rounded=0;orthogonalLoop=1;jettySize=auto;html=1;exitX=1;exitY=0.25;exitDx=0;exitDy=0;entryX=0.5;entryY=0;entryDx=0;entryDy=0;endArrow=diamondThin;endFill=0;" edge="1" parent="WIyWlLk6GJQsqaUBKTNV-1" source="jA7vhIhsQU3gE75cj8yv-92" target="jA7vhIhsQU3gE75cj8yv-61">
          <mxGeometry relative="1" as="geometry">
            <Array as="points">
              <mxPoint x="30" y="244" />
            </Array>
          </mxGeometry>
        </mxCell>
        <mxCell id="jA7vhIhsQU3gE75cj8yv-136" value="1" style="edgeLabel;html=1;align=center;verticalAlign=middle;resizable=0;points=[];" vertex="1" connectable="0" parent="jA7vhIhsQU3gE75cj8yv-130">
          <mxGeometry x="-0.6787" y="1" relative="1" as="geometry">
            <mxPoint x="-2" y="-13" as="offset" />
          </mxGeometry>
        </mxCell>
        <mxCell id="jA7vhIhsQU3gE75cj8yv-162" value="1" style="edgeLabel;html=1;align=center;verticalAlign=middle;resizable=0;points=[];" vertex="1" connectable="0" parent="jA7vhIhsQU3gE75cj8yv-130">
          <mxGeometry x="0.6276" relative="1" as="geometry">
            <mxPoint x="20" y="-4" as="offset" />
          </mxGeometry>
        </mxCell>
        <mxCell id="jA7vhIhsQU3gE75cj8yv-92" value="Trigger" style="swimlane;fontStyle=0;align=center;verticalAlign=top;childLayout=stackLayout;horizontal=1;startSize=26;horizontalStack=0;resizeParent=1;resizeLast=0;collapsible=1;marginBottom=0;rounded=0;shadow=0;strokeWidth=1;fillColor=#cce5ff;strokeColor=#36393d;" vertex="1" parent="WIyWlLk6GJQsqaUBKTNV-1">
          <mxGeometry x="-230" y="230" width="150" height="104" as="geometry">
            <mxRectangle x="130" y="380" width="160" height="26" as="alternateBounds" />
          </mxGeometry>
        </mxCell>
        <mxCell id="jA7vhIhsQU3gE75cj8yv-135" value="trigger_type: TriggerType" style="text;align=left;verticalAlign=top;spacingLeft=4;spacingRight=4;overflow=hidden;rotatable=0;points=[[0,0.5],[1,0.5]];portConstraint=eastwest;" vertex="1" parent="jA7vhIhsQU3gE75cj8yv-92">
          <mxGeometry y="26" width="150" height="26" as="geometry" />
        </mxCell>
        <mxCell id="jA7vhIhsQU3gE75cj8yv-134" value="interval_seconds: int" style="text;align=left;verticalAlign=top;spacingLeft=4;spacingRight=4;overflow=hidden;rotatable=0;points=[[0,0.5],[1,0.5]];portConstraint=eastwest;" vertex="1" parent="jA7vhIhsQU3gE75cj8yv-92">
          <mxGeometry y="52" width="150" height="26" as="geometry" />
        </mxCell>
        <mxCell id="jA7vhIhsQU3gE75cj8yv-133" value="time: datetime" style="text;align=left;verticalAlign=top;spacingLeft=4;spacingRight=4;overflow=hidden;rotatable=0;points=[[0,0.5],[1,0.5]];portConstraint=eastwest;" vertex="1" parent="jA7vhIhsQU3gE75cj8yv-92">
          <mxGeometry y="78" width="150" height="26" as="geometry" />
        </mxCell>
        <mxCell id="jA7vhIhsQU3gE75cj8yv-119" style="edgeStyle=orthogonalEdgeStyle;rounded=0;orthogonalLoop=1;jettySize=auto;html=1;exitX=0.25;exitY=1;exitDx=0;exitDy=0;entryX=0.5;entryY=0;entryDx=0;entryDy=0;endArrow=diamondThin;endFill=0;" edge="1" parent="WIyWlLk6GJQsqaUBKTNV-1" source="jA7vhIhsQU3gE75cj8yv-97" target="jA7vhIhsQU3gE75cj8yv-64">
          <mxGeometry relative="1" as="geometry">
            <Array as="points">
              <mxPoint x="281" y="240" />
              <mxPoint x="248" y="240" />
            </Array>
          </mxGeometry>
        </mxCell>
        <mxCell id="jA7vhIhsQU3gE75cj8yv-144" value="1" style="edgeLabel;html=1;align=center;verticalAlign=middle;resizable=0;points=[];" vertex="1" connectable="0" parent="jA7vhIhsQU3gE75cj8yv-119">
          <mxGeometry x="0.4483" relative="1" as="geometry">
            <mxPoint x="-8" as="offset" />
          </mxGeometry>
        </mxCell>
        <mxCell id="jA7vhIhsQU3gE75cj8yv-145" value="1" style="edgeLabel;html=1;align=center;verticalAlign=middle;resizable=0;points=[];" vertex="1" connectable="0" parent="jA7vhIhsQU3gE75cj8yv-119">
          <mxGeometry x="-0.6958" relative="1" as="geometry">
            <mxPoint x="8" y="-2" as="offset" />
          </mxGeometry>
        </mxCell>
        <mxCell id="jA7vhIhsQU3gE75cj8yv-97" value="InputSettings" style="swimlane;fontStyle=0;align=center;verticalAlign=top;childLayout=stackLayout;horizontal=1;startSize=26;horizontalStack=0;resizeParent=1;resizeLast=0;collapsible=1;marginBottom=0;rounded=0;shadow=0;strokeWidth=1;fillColor=#cce5ff;strokeColor=#36393d;" vertex="1" parent="WIyWlLk6GJQsqaUBKTNV-1">
          <mxGeometry x="214" y="48" width="270" height="182" as="geometry">
            <mxRectangle x="130" y="380" width="160" height="26" as="alternateBounds" />
          </mxGeometry>
        </mxCell>
        <mxCell id="jA7vhIhsQU3gE75cj8yv-98" value="time_refence_mode: TimeReferenceMode" style="text;align=left;verticalAlign=top;spacingLeft=4;spacingRight=4;overflow=hidden;rotatable=0;points=[[0,0.5],[1,0.5]];portConstraint=eastwest;" vertex="1" parent="jA7vhIhsQU3gE75cj8yv-97">
          <mxGeometry y="26" width="270" height="26" as="geometry" />
        </mxCell>
        <mxCell id="jA7vhIhsQU3gE75cj8yv-169" value="time_zone: str" style="text;align=left;verticalAlign=top;spacingLeft=4;spacingRight=4;overflow=hidden;rotatable=0;points=[[0,0.5],[1,0.5]];portConstraint=eastwest;" vertex="1" parent="jA7vhIhsQU3gE75cj8yv-97">
          <mxGeometry y="52" width="270" height="26" as="geometry" />
        </mxCell>
        <mxCell id="jA7vhIhsQU3gE75cj8yv-170" value="start_event_time: datetime" style="text;align=left;verticalAlign=top;spacingLeft=4;spacingRight=4;overflow=hidden;rotatable=0;points=[[0,0.5],[1,0.5]];portConstraint=eastwest;" vertex="1" parent="jA7vhIhsQU3gE75cj8yv-97">
          <mxGeometry y="78" width="270" height="26" as="geometry" />
        </mxCell>
        <mxCell id="jA7vhIhsQU3gE75cj8yv-171" value="end_event_time: datetime" style="text;align=left;verticalAlign=top;spacingLeft=4;spacingRight=4;overflow=hidden;rotatable=0;points=[[0,0.5],[1,0.5]];portConstraint=eastwest;" vertex="1" parent="jA7vhIhsQU3gE75cj8yv-97">
          <mxGeometry y="104" width="270" height="26" as="geometry" />
        </mxCell>
        <mxCell id="jA7vhIhsQU3gE75cj8yv-172" value="past_timeframe_seconds: int" style="text;align=left;verticalAlign=top;spacingLeft=4;spacingRight=4;overflow=hidden;rotatable=0;points=[[0,0.5],[1,0.5]];portConstraint=eastwest;" vertex="1" parent="jA7vhIhsQU3gE75cj8yv-97">
          <mxGeometry y="130" width="270" height="26" as="geometry" />
        </mxCell>
        <mxCell id="jA7vhIhsQU3gE75cj8yv-173" value="event_time: datetime" style="text;align=left;verticalAlign=top;spacingLeft=4;spacingRight=4;overflow=hidden;rotatable=0;points=[[0,0.5],[1,0.5]];portConstraint=eastwest;" vertex="1" parent="jA7vhIhsQU3gE75cj8yv-97">
          <mxGeometry y="156" width="270" height="26" as="geometry" />
        </mxCell>
        <mxCell id="jA7vhIhsQU3gE75cj8yv-106" style="edgeStyle=orthogonalEdgeStyle;rounded=0;orthogonalLoop=1;jettySize=auto;html=1;exitX=0.5;exitY=1;exitDx=0;exitDy=0;entryX=0.25;entryY=0;entryDx=0;entryDy=0;endArrow=diamondThin;endFill=0;" edge="1" parent="WIyWlLk6GJQsqaUBKTNV-1" source="jA7vhIhsQU3gE75cj8yv-100" target="jA7vhIhsQU3gE75cj8yv-64">
          <mxGeometry relative="1" as="geometry" />
        </mxCell>
        <mxCell id="jA7vhIhsQU3gE75cj8yv-142" value="1" style="edgeLabel;html=1;align=center;verticalAlign=middle;resizable=0;points=[];" vertex="1" connectable="0" parent="jA7vhIhsQU3gE75cj8yv-106">
          <mxGeometry x="-0.5477" y="1" relative="1" as="geometry">
            <mxPoint x="9" y="-24" as="offset" />
          </mxGeometry>
        </mxCell>
        <mxCell id="jA7vhIhsQU3gE75cj8yv-143" value="1" style="edgeLabel;html=1;align=center;verticalAlign=middle;resizable=0;points=[];" vertex="1" connectable="0" parent="jA7vhIhsQU3gE75cj8yv-106">
          <mxGeometry x="0.8016" y="1" relative="1" as="geometry">
            <mxPoint x="-15" as="offset" />
          </mxGeometry>
        </mxCell>
        <mxCell id="jA7vhIhsQU3gE75cj8yv-100" value="FormulaSettings" style="swimlane;fontStyle=0;align=center;verticalAlign=top;childLayout=stackLayout;horizontal=1;startSize=26;horizontalStack=0;resizeParent=1;resizeLast=0;collapsible=1;marginBottom=0;rounded=0;shadow=0;strokeWidth=1;fillColor=#cce5ff;strokeColor=#36393d;" vertex="1" parent="WIyWlLk6GJQsqaUBKTNV-1">
          <mxGeometry x="-20" y="60" width="220" height="104" as="geometry">
            <mxRectangle x="130" y="380" width="160" height="26" as="alternateBounds" />
          </mxGeometry>
        </mxCell>
        <mxCell id="jA7vhIhsQU3gE75cj8yv-101" value="formula: Forumla" style="text;align=left;verticalAlign=top;spacingLeft=4;spacingRight=4;overflow=hidden;rotatable=0;points=[[0,0.5],[1,0.5]];portConstraint=eastwest;" vertex="1" parent="jA7vhIhsQU3gE75cj8yv-100">
          <mxGeometry y="26" width="220" height="26" as="geometry" />
        </mxCell>
        <mxCell id="jA7vhIhsQU3gE75cj8yv-178" value="approximation_settings: ApproximationSettings" style="text;align=left;verticalAlign=top;spacingLeft=4;spacingRight=4;overflow=hidden;rotatable=0;points=[[0,0.5],[1,0.5]];portConstraint=eastwest;fontSize=10;" vertex="1" parent="jA7vhIhsQU3gE75cj8yv-100">
          <mxGeometry y="52" width="220" height="26" as="geometry" />
        </mxCell>
        <mxCell id="jA7vhIhsQU3gE75cj8yv-179" value="output_format: OutputFormat" style="text;align=left;verticalAlign=top;spacingLeft=4;spacingRight=4;overflow=hidden;rotatable=0;points=[[0,0.5],[1,0.5]];portConstraint=eastwest;" vertex="1" parent="jA7vhIhsQU3gE75cj8yv-100">
          <mxGeometry y="78" width="220" height="26" as="geometry" />
        </mxCell>
        <mxCell id="jA7vhIhsQU3gE75cj8yv-103" value="Input" style="swimlane;fontStyle=0;align=center;verticalAlign=top;childLayout=stackLayout;horizontal=1;startSize=26;horizontalStack=0;resizeParent=1;resizeLast=0;collapsible=1;marginBottom=0;rounded=0;shadow=0;strokeWidth=1;fillColor=#cce5ff;strokeColor=#36393d;" vertex="1" parent="WIyWlLk6GJQsqaUBKTNV-1">
          <mxGeometry x="390" y="310" width="230" height="80" as="geometry">
            <mxRectangle x="130" y="380" width="160" height="26" as="alternateBounds" />
          </mxGeometry>
        </mxCell>
        <mxCell id="jA7vhIhsQU3gE75cj8yv-166" value="data_point_id: UUID" style="text;align=left;verticalAlign=top;spacingLeft=4;spacingRight=4;overflow=hidden;rotatable=0;points=[[0,0.5],[1,0.5]];portConstraint=eastwest;" vertex="1" parent="jA7vhIhsQU3gE75cj8yv-103">
          <mxGeometry y="26" width="230" height="26" as="geometry" />
        </mxCell>
        <mxCell id="jA7vhIhsQU3gE75cj8yv-104" value="data_point_values: List[DataPointValue]" style="text;align=left;verticalAlign=top;spacingLeft=4;spacingRight=4;overflow=hidden;rotatable=0;points=[[0,0.5],[1,0.5]];portConstraint=eastwest;" vertex="1" parent="jA7vhIhsQU3gE75cj8yv-103">
          <mxGeometry y="52" width="230" height="26" as="geometry" />
        </mxCell>
        <mxCell id="jA7vhIhsQU3gE75cj8yv-109" style="edgeStyle=orthogonalEdgeStyle;rounded=0;orthogonalLoop=1;jettySize=auto;html=1;exitX=0.002;exitY=0.58;exitDx=0;exitDy=0;entryX=1;entryY=0.5;entryDx=0;entryDy=0;endArrow=diamondThin;endFill=0;exitPerimeter=0;" edge="1" parent="WIyWlLk6GJQsqaUBKTNV-1" source="jA7vhIhsQU3gE75cj8yv-104" target="jA7vhIhsQU3gE75cj8yv-165">
          <mxGeometry relative="1" as="geometry" />
        </mxCell>
        <mxCell id="jA7vhIhsQU3gE75cj8yv-152" value="0..*" style="edgeLabel;html=1;align=center;verticalAlign=middle;resizable=0;points=[];" vertex="1" connectable="0" parent="jA7vhIhsQU3gE75cj8yv-109">
          <mxGeometry x="0.0436" y="-2" relative="1" as="geometry">
            <mxPoint x="11" y="-15" as="offset" />
          </mxGeometry>
        </mxCell>
        <mxCell id="jA7vhIhsQU3gE75cj8yv-153" value="1" style="edgeLabel;html=1;align=center;verticalAlign=middle;resizable=0;points=[];" vertex="1" connectable="0" parent="jA7vhIhsQU3gE75cj8yv-109">
          <mxGeometry x="0.1446" y="-2" relative="1" as="geometry">
            <mxPoint x="-12" y="-15" as="offset" />
          </mxGeometry>
        </mxCell>
        <mxCell id="jA7vhIhsQU3gE75cj8yv-118" style="edgeStyle=orthogonalEdgeStyle;rounded=0;orthogonalLoop=1;jettySize=auto;html=1;exitX=0.25;exitY=1;exitDx=0;exitDy=0;entryX=1;entryY=0.5;entryDx=0;entryDy=0;endArrow=diamondThin;endFill=0;" edge="1" parent="WIyWlLk6GJQsqaUBKTNV-1" source="jA7vhIhsQU3gE75cj8yv-110" target="jA7vhIhsQU3gE75cj8yv-163">
          <mxGeometry relative="1" as="geometry" />
        </mxCell>
        <mxCell id="jA7vhIhsQU3gE75cj8yv-149" value="0..*" style="edgeLabel;html=1;align=center;verticalAlign=middle;resizable=0;points=[];" vertex="1" connectable="0" parent="jA7vhIhsQU3gE75cj8yv-118">
          <mxGeometry x="-0.8023" y="1" relative="1" as="geometry">
            <mxPoint x="-19" y="-13" as="offset" />
          </mxGeometry>
        </mxCell>
        <mxCell id="jA7vhIhsQU3gE75cj8yv-150" value="1" style="edgeLabel;html=1;align=center;verticalAlign=middle;resizable=0;points=[];" vertex="1" connectable="0" parent="jA7vhIhsQU3gE75cj8yv-118">
          <mxGeometry x="0.7859" relative="1" as="geometry">
            <mxPoint x="-12" y="-15" as="offset" />
          </mxGeometry>
        </mxCell>
        <mxCell id="jA7vhIhsQU3gE75cj8yv-175" style="edgeStyle=orthogonalEdgeStyle;rounded=0;orthogonalLoop=1;jettySize=auto;html=1;exitX=0.75;exitY=1;exitDx=0;exitDy=0;entryX=0.75;entryY=0;entryDx=0;entryDy=0;endArrow=diamondThin;endFill=0;" edge="1" parent="WIyWlLk6GJQsqaUBKTNV-1" source="jA7vhIhsQU3gE75cj8yv-110" target="jA7vhIhsQU3gE75cj8yv-103">
          <mxGeometry relative="1" as="geometry" />
        </mxCell>
        <mxCell id="jA7vhIhsQU3gE75cj8yv-176" value="1" style="edgeLabel;html=1;align=center;verticalAlign=middle;resizable=0;points=[];" vertex="1" connectable="0" parent="jA7vhIhsQU3gE75cj8yv-175">
          <mxGeometry x="0.672" y="-1" relative="1" as="geometry">
            <mxPoint x="9" y="6" as="offset" />
          </mxGeometry>
        </mxCell>
        <mxCell id="jA7vhIhsQU3gE75cj8yv-177" value="0..*" style="edgeLabel;html=1;align=center;verticalAlign=middle;resizable=0;points=[];" vertex="1" connectable="0" parent="jA7vhIhsQU3gE75cj8yv-175">
          <mxGeometry x="-0.5784" relative="1" as="geometry">
            <mxPoint x="-16" y="-9" as="offset" />
          </mxGeometry>
        </mxCell>
        <mxCell id="jA7vhIhsQU3gE75cj8yv-110" value="DataPointValue" style="swimlane;fontStyle=0;align=center;verticalAlign=top;childLayout=stackLayout;horizontal=1;startSize=26;horizontalStack=0;resizeParent=1;resizeLast=0;collapsible=1;marginBottom=0;rounded=0;shadow=0;strokeWidth=1;fillColor=#cce5ff;strokeColor=#36393d;" vertex="1" parent="WIyWlLk6GJQsqaUBKTNV-1">
          <mxGeometry x="494" y="170" width="136" height="80" as="geometry">
            <mxRectangle x="130" y="380" width="160" height="26" as="alternateBounds" />
          </mxGeometry>
        </mxCell>
        <mxCell id="jA7vhIhsQU3gE75cj8yv-168" value="value: float" style="text;align=left;verticalAlign=top;spacingLeft=4;spacingRight=4;overflow=hidden;rotatable=0;points=[[0,0.5],[1,0.5]];portConstraint=eastwest;" vertex="1" parent="jA7vhIhsQU3gE75cj8yv-110">
          <mxGeometry y="26" width="136" height="26" as="geometry" />
        </mxCell>
        <mxCell id="jA7vhIhsQU3gE75cj8yv-111" value="event_time: datatime" style="text;align=left;verticalAlign=top;spacingLeft=4;spacingRight=4;overflow=hidden;rotatable=0;points=[[0,0.5],[1,0.5]];portConstraint=eastwest;" vertex="1" parent="jA7vhIhsQU3gE75cj8yv-110">
          <mxGeometry y="52" width="136" height="18" as="geometry" />
        </mxCell>
        <mxCell id="jA7vhIhsQU3gE75cj8yv-120" value="ApproximationSettings" style="swimlane;fontStyle=0;align=center;verticalAlign=top;childLayout=stackLayout;horizontal=1;startSize=26;horizontalStack=0;resizeParent=1;resizeLast=0;collapsible=1;marginBottom=0;rounded=0;shadow=0;strokeWidth=1;fillColor=#cce5ff;strokeColor=#36393d;" vertex="1" parent="WIyWlLk6GJQsqaUBKTNV-1">
          <mxGeometry x="-280" y="60" width="240" height="156" as="geometry">
            <mxRectangle x="130" y="380" width="160" height="26" as="alternateBounds" />
          </mxGeometry>
        </mxCell>
        <mxCell id="jA7vhIhsQU3gE75cj8yv-121" value="interpolation_method: InterpolationMethod" style="text;align=left;verticalAlign=top;spacingLeft=4;spacingRight=4;overflow=hidden;rotatable=0;points=[[0,0.5],[1,0.5]];portConstraint=eastwest;fontSize=11;" vertex="1" parent="jA7vhIhsQU3gE75cj8yv-120">
          <mxGeometry y="26" width="240" height="26" as="geometry" />
        </mxCell>
        <mxCell id="jA7vhIhsQU3gE75cj8yv-159" value="domain_partitioning_method: DomainPartitioningMethod" style="text;align=left;verticalAlign=top;spacingLeft=4;spacingRight=4;overflow=hidden;rotatable=0;points=[[0,0.5],[1,0.5]];portConstraint=eastwest;fontSize=9;" vertex="1" parent="jA7vhIhsQU3gE75cj8yv-120">
          <mxGeometry y="52" width="240" height="26" as="geometry" />
        </mxCell>
        <mxCell id="jA7vhIhsQU3gE75cj8yv-180" value="interval_seconds: float" style="text;align=left;verticalAlign=top;spacingLeft=4;spacingRight=4;overflow=hidden;rotatable=0;points=[[0,0.5],[1,0.5]];portConstraint=eastwest;fontSize=11;" vertex="1" parent="jA7vhIhsQU3gE75cj8yv-120">
          <mxGeometry y="78" width="240" height="26" as="geometry" />
        </mxCell>
        <mxCell id="jA7vhIhsQU3gE75cj8yv-181" value="domain_input_reference: UUID" style="text;align=left;verticalAlign=top;spacingLeft=4;spacingRight=4;overflow=hidden;rotatable=0;points=[[0,0.5],[1,0.5]];portConstraint=eastwest;fontSize=11;" vertex="1" parent="jA7vhIhsQU3gE75cj8yv-120">
          <mxGeometry y="104" width="240" height="26" as="geometry" />
        </mxCell>
        <mxCell id="jA7vhIhsQU3gE75cj8yv-182" value="average_interval: str" style="text;align=left;verticalAlign=top;spacingLeft=4;spacingRight=4;overflow=hidden;rotatable=0;points=[[0,0.5],[1,0.5]];portConstraint=eastwest;fontSize=11;" vertex="1" parent="jA7vhIhsQU3gE75cj8yv-120">
          <mxGeometry y="130" width="240" height="26" as="geometry" />
        </mxCell>
        <mxCell id="jA7vhIhsQU3gE75cj8yv-123" style="edgeStyle=orthogonalEdgeStyle;rounded=0;orthogonalLoop=1;jettySize=auto;html=1;exitX=1;exitY=0.5;exitDx=0;exitDy=0;entryX=0;entryY=0.5;entryDx=0;entryDy=0;endArrow=diamondThin;endFill=0;" edge="1" parent="WIyWlLk6GJQsqaUBKTNV-1" source="jA7vhIhsQU3gE75cj8yv-121" target="jA7vhIhsQU3gE75cj8yv-101">
          <mxGeometry relative="1" as="geometry" />
        </mxCell>
        <mxCell id="jA7vhIhsQU3gE75cj8yv-139" value="1" style="edgeLabel;html=1;align=center;verticalAlign=middle;resizable=0;points=[];" vertex="1" connectable="0" parent="jA7vhIhsQU3gE75cj8yv-123">
          <mxGeometry x="0.0922" y="-2" relative="1" as="geometry">
            <mxPoint x="-1" y="9" as="offset" />
          </mxGeometry>
        </mxCell>
        <mxCell id="jA7vhIhsQU3gE75cj8yv-141" value="1" style="edgeLabel;html=1;align=center;verticalAlign=middle;resizable=0;points=[];" vertex="1" connectable="0" parent="jA7vhIhsQU3gE75cj8yv-123">
          <mxGeometry x="0.2963" y="-1" relative="1" as="geometry">
            <mxPoint x="-3" y="-20" as="offset" />
          </mxGeometry>
        </mxCell>
        <mxCell id="jA7vhIhsQU3gE75cj8yv-129" style="edgeStyle=orthogonalEdgeStyle;rounded=0;orthogonalLoop=1;jettySize=auto;html=1;exitX=0.115;exitY=0;exitDx=0;exitDy=0;entryX=0.5;entryY=1;entryDx=0;entryDy=0;endArrow=diamondThin;endFill=0;exitPerimeter=0;" edge="1" parent="WIyWlLk6GJQsqaUBKTNV-1" source="zkfFHV4jXpPFQw0GAbJ--0" target="jA7vhIhsQU3gE75cj8yv-1">
          <mxGeometry relative="1" as="geometry">
            <Array as="points">
              <mxPoint x="-460" y="400" />
              <mxPoint x="-460" y="400" />
            </Array>
          </mxGeometry>
        </mxCell>
        <mxCell id="jA7vhIhsQU3gE75cj8yv-255" value="1" style="edgeLabel;html=1;align=center;verticalAlign=middle;resizable=0;points=[];" vertex="1" connectable="0" parent="jA7vhIhsQU3gE75cj8yv-129">
          <mxGeometry x="0.2276" y="1" relative="1" as="geometry">
            <mxPoint x="11" y="-20" as="offset" />
          </mxGeometry>
        </mxCell>
        <mxCell id="jA7vhIhsQU3gE75cj8yv-256" value="1" style="edgeLabel;html=1;align=center;verticalAlign=middle;resizable=0;points=[];" vertex="1" connectable="0" parent="jA7vhIhsQU3gE75cj8yv-129">
          <mxGeometry x="-0.6442" y="1" relative="1" as="geometry">
            <mxPoint x="11" as="offset" />
          </mxGeometry>
        </mxCell>
        <mxCell id="jA7vhIhsQU3gE75cj8yv-246" style="edgeStyle=orthogonalEdgeStyle;rounded=0;orthogonalLoop=1;jettySize=auto;html=1;exitX=0.5;exitY=0;exitDx=0;exitDy=0;entryX=0.003;entryY=0.557;entryDx=0;entryDy=0;entryPerimeter=0;startArrow=open;startFill=0;endArrow=none;endFill=0;" edge="1" parent="WIyWlLk6GJQsqaUBKTNV-1" source="jA7vhIhsQU3gE75cj8yv-80" target="jA7vhIhsQU3gE75cj8yv-218">
          <mxGeometry relative="1" as="geometry">
            <Array as="points">
              <mxPoint x="-274" y="1030" />
              <mxPoint x="-139" y="1030" />
            </Array>
          </mxGeometry>
        </mxCell>
        <mxCell id="jA7vhIhsQU3gE75cj8yv-249" style="edgeStyle=orthogonalEdgeStyle;rounded=0;orthogonalLoop=1;jettySize=auto;html=1;exitX=0.75;exitY=0;exitDx=0;exitDy=0;entryX=-0.015;entryY=0.577;entryDx=0;entryDy=0;entryPerimeter=0;endArrow=none;endFill=0;startArrow=open;startFill=0;" edge="1" parent="WIyWlLk6GJQsqaUBKTNV-1" source="jA7vhIhsQU3gE75cj8yv-78" target="jA7vhIhsQU3gE75cj8yv-218">
          <mxGeometry relative="1" as="geometry">
            <Array as="points">
              <mxPoint x="-450" y="1020" />
              <mxPoint x="-290" y="1020" />
              <mxPoint x="-290" y="1030" />
            </Array>
          </mxGeometry>
        </mxCell>
        <mxCell id="jA7vhIhsQU3gE75cj8yv-253" style="edgeStyle=orthogonalEdgeStyle;rounded=0;orthogonalLoop=1;jettySize=auto;html=1;entryX=0.5;entryY=0;entryDx=0;entryDy=0;exitX=1.002;exitY=0.495;exitDx=0;exitDy=0;exitPerimeter=0;endArrow=open;endFill=0;" edge="1" parent="WIyWlLk6GJQsqaUBKTNV-1" source="jA7vhIhsQU3gE75cj8yv-219" target="jA7vhIhsQU3gE75cj8yv-76">
          <mxGeometry relative="1" as="geometry">
            <Array as="points">
              <mxPoint x="80" y="997" />
              <mxPoint x="225" y="997" />
            </Array>
          </mxGeometry>
        </mxCell>
        <mxCell id="jA7vhIhsQU3gE75cj8yv-254" style="edgeStyle=orthogonalEdgeStyle;rounded=0;orthogonalLoop=1;jettySize=auto;html=1;entryX=0.534;entryY=1.067;entryDx=0;entryDy=0;entryPerimeter=0;endArrow=open;endFill=0;" edge="1" parent="WIyWlLk6GJQsqaUBKTNV-1" source="jA7vhIhsQU3gE75cj8yv-219" target="jA7vhIhsQU3gE75cj8yv-229">
          <mxGeometry relative="1" as="geometry" />
        </mxCell>
      </root>
    </mxGraphModel>
  </diagram>
</mxfile>
